<?xml version="1.0" ?><!DOCTYPE svg  PUBLIC '-//W3C//DTD SVG 1.1//EN'  'http://www.w3.org/Graphics/SVG/1.1/DTD/svg11.dtd'><svg height="34.000" viewBox="-15.000 -21.000 36.000 34.000" width="36.000" xmlns="http://www.w3.org/2000/svg"><line fill="none" stroke="none" stroke-linecap="round" stroke-width="2.0" x1="0.0" x2="0.0" y1="0.0" y2="0.0"/><polygon fill="#add8e6" fill-rule="evenodd" points="0.0,-0.0 -0.05451388888888889,6.6760259536852245e-18 -0.10901947504845605,-0.0009513985453657892 -0.16350015554914982,-0.002853905830884065 -0.21793933504792345,-0.005706942334405649 -0.2723204308433375,-0.009509638993373584 -0.32662687792681117,-0.014260837469548 -0.3808421340284844,-0.01995909050184716 -0.4349496846561537,-0.026602662347197208 -0.48893304812574623,-0.034189529309256325 -0.5427757805818006,-0.04271738035485224 -0.5964614810064245,-0.05218361781794531 -0.6499737962152035,-0.06258535819090279 -0.7032964258385395,-0.07391943300284314 -0.7564131272869012,-0.086182389784783 -0.8093077206984747,-0.09937049312129266 -0.8619640938677051,-0.1134797257883398 -0.9143662071532316,-0.12850578997697482 -0.9664980983637166,-0.14444410860248513 -1.0183438876200843,-0.1612898266986194 -1.069887782192686,-0.17903781289645748 -1.1211140813119178,-0.19768266098747483 -1.172007180950828,-0.21721869157032628 -1.2225515785782535,-0.23763995378084649 -1.2727318778810428,-0.2589402271047409 -1.3225327934539208,-0.2811130232724147 -1.3719391554555715,-0.3041515882353626 -1.4209359142295193,-0.3280489042235172 -1.469508144888399,-0.35279769188293 -1.5176410518602226,-0.37839041249313304 -1.565319973395252,-0.4048192702635063 -1.612530386032112,-0.43207621470795077 -1.6592579090217758,-0.4601529430971447 -1.705488308708081,-0.4890409029876354 -1.7512075028634393,-0.5187312948269963 -1.796401564978419,-0.5492150746342558 -1.8410567285038955,-0.5804829567547816 -1.8851593910444742,-0.612525416688781 -1.9286961185019134,-0.6453326939925559 -1.9716536491672798,-0.6788947952516282 -2.014018897760594,-0.7132014971248312 -2.055778959416733,-0.7482423494584377 -2.0969211136163772,-0.7840066784693785 -2.137432828060805,-0.8204835899965802 -2.17730176248935,-0.8576619728194318 -2.216515772438367,-0.8955305020423703 -2.2550629129405504,-0.9340776425445536 -2.2929314421634888,-0.9732916524935704 -2.3301098249863403,-1.0131605869221154 -2.366586736513542,-1.0536723013665428 -2.402351065524483,-1.094814455566187 -2.43739191785809,-1.1365745172223258 -2.471698619731293,-1.17893976581564 -2.5052607209903655,-1.2218972964810064 -2.5380679982941405,-1.2654340239384456 -2.57011045822814,-1.3095366864790243 -2.6013783403486657,-1.3541918500045007 -2.631862120155925,-1.3993859121194805 -2.661552511995286,-1.4451051062748388 -2.690440471885777,-1.491335505961144 -2.7185172002749707,-1.5380630289508077 -2.745774144719415,-1.585273441587668 -2.772203002489788,-1.6329523631226976 -2.7977957230999912,-1.6810852700945211 -2.8225445107594043,-1.729657500753401 -2.846441826747559,-1.7786542595273487 -2.869480391710507,-1.8280606215289994 -2.891653187878181,-1.8778615371018774 -2.912953461202075,-1.9280418364046668 -2.9333747234125953,-1.9785862340320923 -2.9529107539954467,-2.029479333671002 -2.971555602086464,-2.080705632790234 -2.989303588284302,-2.132249527362836 -3.0061493063804368,-2.184095316619204 -3.022087625005947,-2.236227207829689 -3.037113689194582,-2.2886293211152156 -3.0512229218616294,-2.341285694284446 -3.064411025198139,-2.3941802876960194 -3.076673981980079,-2.447296989144381 -3.0880080567920194,-2.5006196187677174 -3.098409797164977,-2.5541319339764965 -3.10787603462807,-2.6078176344011204 -3.116403885673666,-2.6616603668571748 -3.1239907526357253,-2.7156437303267675 -3.1306343244810755,-2.769751280954437 -3.136332577513375,-2.8239665370561102 -3.141083775989549,-2.878272984139584 -3.1448864726485173,-2.932654079934998 -3.147739509152039,-2.987093259433772 -3.149642016437557,-3.041573939934466 -3.150593414982923,-3.0960795260940333 -3.150593414982923,-3.1505934149829224 -3.149642016437557,-3.20509900114249 -3.147739509152039,-3.2595796816431837 -3.1448864726485173,-3.3140188611419577 -3.141083775989549,-3.3683999569373717 -3.136332577513375,-3.4227064040208455 -3.1306343244810755,-3.476921660122519 -3.1239907526357253,-3.531029210750188 -3.116403885673666,-3.585012574219781 -3.1078760346280703,-3.6388553066758353 -3.0984097971649773,-3.692541007100459 -3.08800805679202,-3.7460533223092383 -3.0766739819800795,-3.7993759519325745 -3.06441102519814,-3.8524926533809363 -3.0512229218616302,-3.9053872467925097 -3.037113689194583,-3.95804361996174 -3.022087625005948,-4.010445733247267 -3.0061493063804376,-4.062577624457752 -2.9893035882843035,-4.11442341371412 -2.9715556020864655,-4.165967308286722 -2.952910753995448,-4.217193607405954 -2.9333747234125966,-4.268086707044864 -2.9129534612020764,-4.318631104672289 -2.891653187878182,-4.368811403975079 -2.8694803917105083,-4.418612319547957 -2.84644182674756,-4.468018681549609 -2.8225445107594056,-4.517015440323556 -2.7977957230999926,-4.565587670982436 -2.7722030024897895,-4.613720577954259 -2.745774144719416,-4.661399499489289 -2.7185172002749716,-4.70860991212615 -2.6904404718857777,-4.7553374351158135 -2.661552511995287,-4.8015678348021185 -2.631862120155926,-4.847287028957477 -2.6013783403486666,-4.892481091072457 -2.570110458228141,-4.937136254597934 -2.5380679982941414,-4.981238917138512 -2.5052607209903663,-5.024775644595952 -2.471698619731294,-5.067733175261318 -2.4373919178580907,-5.110098423854632 -2.402351065524484,-5.151858485510771 -2.366586736513543,-5.193000639710415 -2.3301098249863412,-5.2335123541548425 -2.2929314421634897,-5.273381288583388 -2.2550629129405513,-5.312595298532405 -2.2165157724383677,-5.3511424390345885 -2.1773017624893507,-5.389010968257527 -2.1374328280608057,-5.426189351080379 -2.096921113616378,-5.462666262607581 -2.0557789594167337,-5.498430591618521 -2.014018897760595,-5.533471443952128 -1.9716536491672807,-5.567778145825331 -1.928696118501914,-5.601340247084403 -1.8851593910444746,-5.634147524388178 -1.8410567285038957,-5.666189984322178 -1.7964015649784193,-5.697457866442703 -1.7512075028634395,-5.727941646249963 -1.7054883087080812,-5.757632038089325 -1.6592579090217758,-5.786519997979815 -1.6125303860321119,-5.814596726369009 -1.5653199733952516,-5.841853670813454 -1.517641051860222,-5.868282528583827 -1.4695081448883982,-5.89387524919403 -1.4209359142295181,-5.918624036853443 -1.3719391554555702,-5.942521352841598 -1.3225327934539193,-5.965559917804546 -1.2727318778810413,-5.98773271397222 -1.2225515785782517,-6.009032987296115 -1.172007180950826,-6.029454249506635 -1.1211140813119158,-6.048990280089487 -1.0698877821926838,-6.067635128180504 -1.0183438876200819,-6.085383114378342 -0.9664980983637139,-6.102228832474476 -0.9143662071532288,-6.118167151099986 -0.8619640938677021,-6.133193215288622 -0.8093077206984713,-6.147302447955669 -0.7564131272868977,-6.160490551292178 -0.7032964258385357,-6.172753508074118 -0.6499737962151995,-6.184087582886058 -0.5964614810064203,-6.194489323259016 -0.5427757805817961,-6.203955560722109 -0.48893304812574145,-6.212483411767705 -0.43494968465614864,-6.220070278729764 -0.38084213402847905,-6.2267138505751145 -0.3266268779268055,-6.232412103607413 -0.2723204308433316,-6.237163302083588 -0.21793933504791724,-6.240965998742556 -0.1635001555491433,-6.243819035246078 -0.10901947504844924,-6.245721542531597 -0.05451388888888178,-6.246672941076963 -0.05451388888888181,-6.301186829965852 -0.05356249034351604,-6.35569241612542 -0.05165998305799778,-6.410173096626114 -0.04880694655447621,-6.464612276124887 -0.04500424989550829,-6.518993371920302 -0.04025305141933388,-6.5732998190037755 -0.034554798387034714,-6.627515075105449 -0.02791122654168466,-6.681622625733119 -0.02032435957962553,-6.735605989202711 -0.011796508534029597,-6.789448721658766 -0.0023302710709365,-6.84313442208339 0.008071469302021003,-6.896646737292169 0.019405544113961386,-6.949969366915505 0.031668500895901286,-7.003086068363867 0.044856604232410995,-7.055980661775441 0.05896583689945818,-7.108637034944671 0.07399190108809327,-7.161039148230198 0.08993021971360363,-7.213171039440683 0.10677593780973799,-7.265016828697051 0.12452392400757611,-7.316560723269653 0.14316877209859355,-7.367787022388885 0.16270480268144508,-7.418680122027795 0.18312606489196537,-7.469224519655221 0.2044263382158599,-7.5194048189580105 0.22659913438353382,-7.569205734530889 0.24963769934648178,-7.61861209653254 0.2735350153346365,-7.667608855306488 0.2982838029940494,-7.716181085965369 0.3238765236042526,-7.7643139929371925 0.35030538137462597,-7.811992914472222 0.37756232581907057,-7.859203327109083 0.4056390542082646,-7.905930850098747 0.4345270140987555,-7.9521612497850525 0.4642174059381165,-7.997880443940411 0.49470118574537614,-8.04307450605539 0.5259690678659021,-8.087729669580867 0.5580115277999017,-8.131832332121446 0.5908188051036768,-8.175369059578886 0.6243809063627493,-8.218326590244253 0.6586876082359525,-8.260691838837568 0.6937284605695592,-8.302451900493708 0.7294927895805002,-8.343594054693352 0.7659697011077021,-8.38410576913778 0.8031480839305538,-8.423974703566325 0.8410166131534924,-8.463188713515342 0.879563753655676,-8.501735854017525 0.918777763604693,-8.539604383240464 0.9586466980332383,-8.576782766063316 0.999158412477666,-8.613259677590518 1.0403005666773104,-8.64902400660146 1.0820606283334495,-8.684064858935066 1.1244258769267639,-8.71837156080827 1.1673834075921306,-8.751933662067342 1.21092013504957,-8.784740939371117 1.255022797590149,-8.816783399305116 1.2996779611156255,-8.848051281425642 1.3448720232306055,-8.8785350612329 1.390591217385964,-8.908225453072262 1.4368216170722694,-8.937113412962754 1.4835491400619334,-8.965190141351949 1.5307595526987938,-8.992447085796393 1.5784384742338238,-9.018875943566766 1.6265713812056475,-9.04446866417697 1.6751436118645275,-9.069217451836382 1.7241403706384755,-9.093114767824536 1.7735467326401266,-9.116153332787484 1.8233476482130049,-9.138326128955157 1.8735279475157944,-9.159626402279052 1.9240723451432205,-9.180047664489573 1.9749654447821308,-9.199583695072425 2.026191743901363,-9.218228543163443 2.077735638473965,-9.235976529361281 2.129581427730333,-9.252822247457415 2.181713318940818,-9.268760566082925 2.234115432226345,-9.28378663027156 2.286771805395576,-9.297895862938608 2.3396663988071498,-9.311083966275119 2.392783100255512,-9.32334692305706 2.4461057298788482,-9.334680997869 2.4996180450876277,-9.345082738241958 2.553303745512252,-9.35454897570505 2.607146477968307,-9.363076826750646 2.6611298414378997,-9.370663693712705 2.7152373920655695,-9.377307265558056 2.7694526481672432,-9.383005518590355 2.8237590952507174,-9.38775671706653 2.878140191046132,-9.391559413725497 2.932579370544906,-9.39441245022902 2.9870600510456002,-9.396314957514537 3.041565637205168,-9.397266356059903 3.0960795260940572,-9.397266356059903 3.150585112253625,-9.396314957514537 3.2050657927543194,-9.39441245022902 3.2595049722530933,-9.391559413725497 3.313886068048508,-9.38775671706653 3.368192515131982,-9.383005518590355 3.422407771233656,-9.377307265558056 3.4765153218613256,-9.370663693712705 3.530498685330919,-9.363076826750646 3.5843414177869737,-9.35454897570505 3.638027118211598,-9.345082738241958 3.6915394334203775,-9.334680997869 3.7448620630437137,-9.32334692305706 3.797978764492076,-9.311083966275119 3.85087335790365,-9.297895862938608 3.9035297310728807,-9.28378663027156 3.9559318443584077,-9.268760566082925 4.008063735568893,-9.252822247457415 4.059909524825261,-9.235976529361281 4.111453419397863,-9.218228543163443 4.162679718517095,-9.199583695072425 4.213572818156006,-9.180047664489573 4.264117215783433,-9.159626402279052 4.314297515086222,-9.138326128955157 4.364098430659101,-9.116153332787484 4.413504792660752,-9.093114767824536 4.4625015514347,-9.069217451836382 4.511073782093581,-9.04446866417697 4.559206689065404,-9.018875943566766 4.606885610600434,-8.992447085796393 4.654096023237295,-8.965190141351949 4.7008235462269585,-8.937113412962754 4.747053945913264,-8.908225453072262 4.792773140068623,-8.8785350612329 4.837967202183603,-8.848051281425642 4.8826223657090795,-8.816783399305116 4.926725028249659,-8.784740939371117 4.9702617557070985,-8.751933662067342 5.013219286372466,-8.71837156080827 5.05558453496578,-8.684064858935066 5.097344596621919,-8.64902400660146 5.1384867508215635,-8.613259677590518 5.178998465265991,-8.576782766063316 5.2188673996945365,-8.539604383240464 5.2580814096435535,-8.501735854017525 5.296628550145737,-8.463188713515342 5.334497079368676,-8.423974703566325 5.3716754621915275,-8.38410576913778 5.408152373718729,-8.343594054693352 5.443916702729671,-8.302451900493708 5.478957555063277,-8.260691838837568 5.5132642569364805,-8.218326590244253 5.5468263581955535,-8.175369059578886 5.579633635499329,-8.131832332121446 5.611676095433329,-8.087729669580867 5.642943977553855,-8.04307450605539 5.6734277573611145,-7.99788044394041 5.703118149200476,-7.952161249785052 5.732006109090967,-7.905930850098746 5.7600828374801605,-7.859203327109082 5.787339781924605,-7.8119929144722215 5.813768639694979,-7.764313992937192 5.839361360305182,-7.716181085965368 5.864110147964595,-7.667608855306487 5.88800746395275,-7.618612096532539 5.911046028915698,-7.569205734530888 5.933218825083372,-7.51940481895801 5.954519098407267,-7.46922451965522 5.974940360617787,-7.418680122027793 5.994476391200639,-7.367787022388883 6.013121239291657,-7.31656072326965 6.030869225489495,-7.265016828697048 6.047714943585629,-7.21317103944068 6.063653262211139,-7.161039148230195 6.078679326399775,-7.108637034944668 6.092788559066822,-7.055980661775437 6.105976662403331,-7.003086068363863 6.118239619185271,-6.9499693669155 6.129573693997211,-6.896646737292164 6.139975434370169,-6.843134422083384 6.149441671833262,-6.78944872165876 6.157969522878858,-6.735605989202704 6.165556389840917,-6.6816226257331115 6.1721999616862675,-6.627515075105442 6.177898214718566,-6.5732998190037675 6.182649413194741,-6.518993371920294 6.186452109853709,-6.464612276124879 6.189305146357231,-6.410173096626105 6.19120765364275,-6.35569241612541 6.192159052188116,-6.301186829965842 6.246672941077006,-6.301186829965842 6.301178527236574,-6.300235431420476 6.3556592077372684,-6.298332924134958 6.410098387236043,-6.295479887631436 6.464479483031457,-6.291677190972468 6.518785930114932,-6.286925992496293 6.573001186216606,-6.281227739463994 6.627108736844276,-6.274584167618644 6.681092100313869,-6.266997300656585 6.734934832769924,-6.258469449610989 6.788620533194549,-6.249003212147896 6.842132848403328,-6.238601471774938 6.895455478026665,-6.227267396962998 6.948572179475027,-6.215004440181058 7.001466772886602,-6.201816336844549 7.054123146055833,-6.187707104177502 7.1065252593413595,-6.172681039988866 7.158657150551845,-6.156742721363356 7.2105029398082126,-6.1398970032672215 7.262046834380815,-6.1221490170693835 7.313273133500047,-6.103504168978366 7.364166233138958,-6.083968138395514 7.414710630766384,-6.0635468761849936 7.464890930069174,-6.042246602861099 7.514691845642052,-6.020073806693425 7.5640982076437036,-5.997035241730477 7.613094966417652,-5.973137925742322 7.661667197076532,-5.948389138082909 7.709800104048356,-5.922796417472706 7.757479025583386,-5.896367559702333 7.8046894382202465,-5.869110615257888 7.851416961209911,-5.841033886868694 7.897647360896217,-5.812145926978204 7.9433665550515755,-5.782455535138842 7.988560617166556,-5.751971755331582 8.033215780692032,-5.720703873211057 8.077318443232612,-5.688661413277057 8.120855170690051,-5.655854135973281 8.163812701355418,-5.622292034714208 8.206177949948733,-5.587985332841005 8.247938011604873,-5.552944480507398 8.289080165804517,-5.517180151496457 8.329591880248945,-5.480703239969255 8.36946081467749,-5.443524857146404 8.408674824626507,-5.405656327923465 8.44722196512869,-5.367109187421281 8.48509049435163,-5.327895177472264 8.522268877174481,-5.288026243043719 8.558745788701684,-5.247514528599291 8.594510117712625,-5.206372374399646 8.629550970046232,-5.1646123127435075 8.663857671919436,-5.122247064150193 8.697419773178508,-5.079289533484826 8.730227050482283,-5.035752806027387 8.762269510416282,-4.991650143486807 8.793537392536807,-4.946994979961331 8.824021172344066,-4.901800917846351 8.853711564183428,-4.856081723690992 8.88259952407392,-4.809851324004686 8.910676252463114,-4.763123801015022 8.93793319690756,-4.715913388378161 8.964362054677933,-4.668234466843131 8.989954775288137,-4.6201015598713076 9.01470356294755,-4.571529329212427 9.038600878935705,-4.522532570438479 9.061639443898654,-4.4731262084368275 9.083812240066328,-4.423325292863949 9.105112513390223,-4.3731449935611595 9.125533775600744,-4.322600595933733 9.145069806183596,-4.271707496294822 9.163714654274614,-4.22048119717559 9.181462640472452,-4.168937302602988 9.198308358568587,-4.117091513346619 9.214246677194097,-4.064959622136133 9.229272741382733,-4.012557508850605 9.24338197404978,-3.959901135681374 9.256570077386291,-3.9070065422698 9.268833034168232,-3.8538898408214375 9.280167108980173,-3.800567211198101 9.29056884935313,-3.7470548959893213 9.300035086816223,-3.6933691955646966 9.308562937861819,-3.6395264631086413 9.316149804823878,-3.585543099639048 9.322793376669228,-3.5314355490113782 9.328491629701528,-3.4772202929097045 9.333242828177703,-3.4229138458262303 9.33704552483667,-3.3685327500308153 9.339898561340192,-3.314093570532041 9.34180106862571,-3.2596128900313466 9.342752467171076,-3.205107303871779 9.342752467171076,-3.150593414982889 9.34180106862571,-3.0960878288233213 9.339898561340192,-3.041607148322627 9.33704552483667,-2.9871679688238526 9.333242828177703,-2.9327868730284377 9.328491629701528,-2.8784804259449635 9.322793376669228,-2.8242651698432897 9.316149804823878,-2.7701576192156194 9.308562937861819,-2.7161742557460262 9.300035086816223,-2.662331523289971 9.29056884935313,-2.608645822865346 9.280167108980173,-2.5551335076565667 9.268833034168232,-2.50181087803323 9.256570077386291,-2.4486941765848673 9.24338197404978,-2.395799583173293 9.229272741382733,-2.3431432100040617 9.214246677194097,-2.2907410967185347 9.198308358568587,-2.238609205508049 9.181462640472454,-2.1867634162516807 9.163714654274616,-2.1352195216790784 9.145069806183598,-2.0839932225598456 9.125533775600745,-2.033100122920935 9.105112513390225,-1.9825557252935087 9.08381224006633,-1.9323754259907187 9.061639443898656,-1.88257451041784 9.038600878935707,-1.8331681484161886 9.014703562947552,-1.7841713896422402 8.989954775288139,-1.7355991589833597 8.964362054677935,-1.6874662520115356 8.937933196907561,-1.6397873304765054 8.910676252463118,-1.5925769178396447 8.882599524073923,-1.5458493948499803 8.853711564183431,-1.4996189951636745 8.82402117234407,-1.4538998010083155 8.79353739253681,-1.408705738893335 8.762269510416285,-1.364050575367858 8.730227050482286,-1.3199479128272786 8.697419773178511,-1.2764111853698388 8.66385767191944,-1.2334536547044717 8.629550970046235,-1.1910884061111568 8.594510117712629,-1.1493283444550175 8.558745788701687,-1.1081861902553727 8.522268877174485,-1.0676744758109447 8.485090494351633,-1.027805541382399 8.447221965128694,-0.9885915314333816 8.40867482462651,-0.9500443909311976 8.369460814677494,-0.9121758617082586 8.329591880248948,-0.8749974788854065 8.28908016580452,-0.8385205673582042 8.247938011604877,-0.8027562383472628 8.206177949948737,-0.7677153860136557 8.163812701355422,-0.7334086841404522 8.120855170690055,-0.6998465828813794 8.077318443232615,-0.6670393055776039 8.033215780692036,-0.634996845643604 7.988560617166558,-0.6037289635230777 7.943366555051578,-0.5732451837158177 7.89764736089622,-0.5435547918764563 7.851416961209914,-0.5146668319859651 7.804689438220249,-0.4865901035967707 7.757479025583389,-0.45933315915232575 7.709800104048359,-0.4329043013819521 7.661667197076535,-0.40731158077174856 7.613094966417655,-0.3825627931123353 7.564098207643706,-0.35866547712418034 7.514691845642055,-0.3356269121612321 7.464890930069177,-0.3134541159935578 7.414710630766387,-0.292153842669663 7.364166233138961,-0.2717325804591424 7.31327313350005,-0.2521965498762906 7.2620468343808176,-0.23355170178527287 7.210502939808215,-0.21580371558743447 7.158657150551846,-0.19895799749129986 7.10652525934136,-0.18301967886578924 7.054123146055833,-0.1679936146771539 7.001466772886602,-0.15388438201010646 6.948572179475027,-0.14069627867359652 6.895455478026665,-0.1284333218916564 6.8421328484033275,-0.11709924707971579 6.788620533194548,-0.10669750670675808 6.734934832769923,-0.09723126924366478 6.681092100313868,-0.08870341819806865 6.627108736844274,-0.08111655123600933 6.5730011862166045,-0.0744729793906591 6.51878593011493,-0.06877472635835977 6.464479483031456,-0.0640235278821852 6.410098387236041,-0.060220831223217114 6.355659207737267,-0.0573677947196954 6.301178527236572,-0.05546528743417701 6.246672941077004,-0.05451388888881111 -0.0033270589230944836,-0.054513888888801834" stroke-linejoin="round"/><polyline fill="none" points="0.0,-0.0 -0.05451388888888889,6.6760259536852245e-18 -0.10901947504845605,-0.0009513985453657892 -0.16350015554914982,-0.002853905830884065 -0.21793933504792345,-0.005706942334405649 -0.2723204308433375,-0.009509638993373584 -0.32662687792681117,-0.014260837469548 -0.3808421340284844,-0.01995909050184716 -0.4349496846561537,-0.026602662347197208 -0.48893304812574623,-0.034189529309256325 -0.5427757805818006,-0.04271738035485224 -0.5964614810064245,-0.05218361781794531 -0.6499737962152035,-0.06258535819090279 -0.7032964258385395,-0.07391943300284314 -0.7564131272869012,-0.086182389784783 -0.8093077206984747,-0.09937049312129266 -0.8619640938677051,-0.1134797257883398 -0.9143662071532316,-0.12850578997697482 -0.9664980983637166,-0.14444410860248513 -1.0183438876200843,-0.1612898266986194 -1.069887782192686,-0.17903781289645748 -1.1211140813119178,-0.19768266098747483 -1.172007180950828,-0.21721869157032628 -1.2225515785782535,-0.23763995378084649 -1.2727318778810428,-0.2589402271047409 -1.3225327934539208,-0.2811130232724147 -1.3719391554555715,-0.3041515882353626 -1.4209359142295193,-0.3280489042235172 -1.469508144888399,-0.35279769188293 -1.5176410518602226,-0.37839041249313304 -1.565319973395252,-0.4048192702635063 -1.612530386032112,-0.43207621470795077 -1.6592579090217758,-0.4601529430971447 -1.705488308708081,-0.4890409029876354 -1.7512075028634393,-0.5187312948269963 -1.796401564978419,-0.5492150746342558 -1.8410567285038955,-0.5804829567547816 -1.8851593910444742,-0.612525416688781 -1.9286961185019134,-0.6453326939925559 -1.9716536491672798,-0.6788947952516282 -2.014018897760594,-0.7132014971248312 -2.055778959416733,-0.7482423494584377 -2.0969211136163772,-0.7840066784693785" stroke="#00f" stroke-linecap="round" stroke-linejoin="round"/><polyline fill="none" points="-2.0969211136163772,-0.7840066784693785 -2.137432828060805,-0.8204835899965802 -2.17730176248935,-0.8576619728194318 -2.216515772438367,-0.8955305020423703 -2.2550629129405504,-0.9340776425445536 -2.2929314421634888,-0.9732916524935704 -2.3301098249863403,-1.0131605869221154 -2.366586736513542,-1.0536723013665428 -2.402351065524483,-1.094814455566187 -2.43739191785809,-1.1365745172223258 -2.471698619731293,-1.17893976581564 -2.5052607209903655,-1.2218972964810064 -2.5380679982941405,-1.2654340239384456 -2.57011045822814,-1.3095366864790243 -2.6013783403486657,-1.3541918500045007 -2.631862120155925,-1.3993859121194805 -2.661552511995286,-1.4451051062748388 -2.690440471885777,-1.491335505961144 -2.7185172002749707,-1.5380630289508077 -2.745774144719415,-1.585273441587668 -2.772203002489788,-1.6329523631226976 -2.7977957230999912,-1.6810852700945211 -2.8225445107594043,-1.729657500753401 -2.846441826747559,-1.7786542595273487 -2.869480391710507,-1.8280606215289994 -2.891653187878181,-1.8778615371018774 -2.912953461202075,-1.9280418364046668 -2.9333747234125953,-1.9785862340320923 -2.9529107539954467,-2.029479333671002 -2.971555602086464,-2.080705632790234 -2.989303588284302,-2.132249527362836 -3.0061493063804368,-2.184095316619204 -3.022087625005947,-2.236227207829689 -3.037113689194582,-2.2886293211152156 -3.0512229218616294,-2.341285694284446 -3.064411025198139,-2.3941802876960194 -3.076673981980079,-2.447296989144381 -3.0880080567920194,-2.5006196187677174 -3.098409797164977,-2.5541319339764965 -3.10787603462807,-2.6078176344011204 -3.116403885673666,-2.6616603668571748 -3.1239907526357253,-2.7156437303267675 -3.1306343244810755,-2.769751280954437" stroke="#00f" stroke-linecap="round" stroke-linejoin="round"/><polyline fill="none" points="-3.1306343244810755,-2.769751280954437 -3.136332577513375,-2.8239665370561102 -3.141083775989549,-2.878272984139584 -3.1448864726485173,-2.932654079934998 -3.147739509152039,-2.987093259433772 -3.149642016437557,-3.041573939934466 -3.150593414982923,-3.0960795260940333 -3.150593414982923,-3.1505934149829224 -3.149642016437557,-3.20509900114249 -3.147739509152039,-3.2595796816431837 -3.1448864726485173,-3.3140188611419577 -3.141083775989549,-3.3683999569373717 -3.136332577513375,-3.4227064040208455 -3.1306343244810755,-3.476921660122519 -3.1239907526357253,-3.531029210750188 -3.116403885673666,-3.585012574219781 -3.1078760346280703,-3.6388553066758353 -3.0984097971649773,-3.692541007100459 -3.08800805679202,-3.7460533223092383 -3.0766739819800795,-3.7993759519325745 -3.06441102519814,-3.8524926533809363 -3.0512229218616302,-3.9053872467925097 -3.037113689194583,-3.95804361996174 -3.022087625005948,-4.010445733247267 -3.0061493063804376,-4.062577624457752 -2.9893035882843035,-4.11442341371412 -2.9715556020864655,-4.165967308286722 -2.952910753995448,-4.217193607405954 -2.9333747234125966,-4.268086707044864 -2.9129534612020764,-4.318631104672289 -2.891653187878182,-4.368811403975079 -2.8694803917105083,-4.418612319547957 -2.84644182674756,-4.468018681549609 -2.8225445107594056,-4.517015440323556 -2.7977957230999926,-4.565587670982436 -2.7722030024897895,-4.613720577954259 -2.745774144719416,-4.661399499489289 -2.7185172002749716,-4.70860991212615 -2.6904404718857777,-4.7553374351158135 -2.661552511995287,-4.8015678348021185 -2.631862120155926,-4.847287028957477 -2.6013783403486666,-4.892481091072457 -2.570110458228141,-4.937136254597934" stroke="#00f" stroke-linecap="round" stroke-linejoin="round"/><polyline fill="none" points="-2.570110458228141,-4.937136254597934 -2.5380679982941414,-4.981238917138512 -2.5052607209903663,-5.024775644595952 -2.471698619731294,-5.067733175261318 -2.4373919178580907,-5.110098423854632 -2.402351065524484,-5.151858485510771 -2.366586736513543,-5.193000639710415 -2.3301098249863412,-5.2335123541548425 -2.2929314421634897,-5.273381288583388 -2.2550629129405513,-5.312595298532405 -2.2165157724383677,-5.3511424390345885 -2.1773017624893507,-5.389010968257527 -2.1374328280608057,-5.426189351080379 -2.096921113616378,-5.462666262607581 -2.0557789594167337,-5.498430591618521 -2.014018897760595,-5.533471443952128 -1.9716536491672807,-5.567778145825331 -1.928696118501914,-5.601340247084403 -1.8851593910444746,-5.634147524388178 -1.8410567285038957,-5.666189984322178 -1.7964015649784193,-5.697457866442703 -1.7512075028634395,-5.727941646249963 -1.7054883087080812,-5.757632038089325 -1.6592579090217758,-5.786519997979815 -1.6125303860321119,-5.814596726369009 -1.5653199733952516,-5.841853670813454 -1.517641051860222,-5.868282528583827 -1.4695081448883982,-5.89387524919403 -1.4209359142295181,-5.918624036853443 -1.3719391554555702,-5.942521352841598 -1.3225327934539193,-5.965559917804546 -1.2727318778810413,-5.98773271397222 -1.2225515785782517,-6.009032987296115 -1.172007180950826,-6.029454249506635 -1.1211140813119158,-6.048990280089487 -1.0698877821926838,-6.067635128180504 -1.0183438876200819,-6.085383114378342 -0.9664980983637139,-6.102228832474476 -0.9143662071532288,-6.118167151099986 -0.8619640938677021,-6.133193215288622 -0.8093077206984713,-6.147302447955669 -0.7564131272868977,-6.160490551292178 -0.7032964258385357,-6.172753508074118" stroke="#00f" stroke-linecap="round" stroke-linejoin="round"/><polyline fill="none" points="-0.7032964258385357,-6.172753508074118 -0.6499737962151995,-6.184087582886058 -0.5964614810064203,-6.194489323259016 -0.5427757805817961,-6.203955560722109 -0.48893304812574145,-6.212483411767705 -0.43494968465614864,-6.220070278729764 -0.38084213402847905,-6.2267138505751145 -0.3266268779268055,-6.232412103607413 -0.2723204308433316,-6.237163302083588 -0.21793933504791724,-6.240965998742556 -0.1635001555491433,-6.243819035246078 -0.10901947504844924,-6.245721542531597 -0.05451388888888178,-6.246672941076963 -0.05451388888888181,-6.301186829965852 -0.05356249034351604,-6.35569241612542 -0.05165998305799778,-6.410173096626114 -0.04880694655447621,-6.464612276124887 -0.04500424989550829,-6.518993371920302 -0.04025305141933388,-6.5732998190037755 -0.034554798387034714,-6.627515075105449 -0.02791122654168466,-6.681622625733119 -0.02032435957962553,-6.735605989202711 -0.011796508534029597,-6.789448721658766 -0.0023302710709365,-6.84313442208339 0.008071469302021003,-6.896646737292169 0.019405544113961386,-6.949969366915505 0.031668500895901286,-7.003086068363867 0.044856604232410995,-7.055980661775441 0.05896583689945818,-7.108637034944671 0.07399190108809327,-7.161039148230198 0.08993021971360363,-7.213171039440683 0.10677593780973799,-7.265016828697051 0.12452392400757611,-7.316560723269653 0.14316877209859355,-7.367787022388885 0.16270480268144508,-7.418680122027795 0.18312606489196537,-7.469224519655221 0.2044263382158599,-7.5194048189580105 0.22659913438353382,-7.569205734530889 0.24963769934648178,-7.61861209653254 0.2735350153346365,-7.667608855306488 0.2982838029940494,-7.716181085965369 0.3238765236042526,-7.7643139929371925 0.35030538137462597,-7.811992914472222" stroke="#00f" stroke-linecap="round" stroke-linejoin="round"/><polyline fill="none" points="0.35030538137462597,-7.811992914472222 0.37756232581907057,-7.859203327109083 0.4056390542082646,-7.905930850098747 0.4345270140987555,-7.9521612497850525 0.4642174059381165,-7.997880443940411 0.49470118574537614,-8.04307450605539 0.5259690678659021,-8.087729669580867 0.5580115277999017,-8.131832332121446 0.5908188051036768,-8.175369059578886 0.6243809063627493,-8.218326590244253 0.6586876082359525,-8.260691838837568 0.6937284605695592,-8.302451900493708 0.7294927895805002,-8.343594054693352 0.7659697011077021,-8.38410576913778 0.8031480839305538,-8.423974703566325 0.8410166131534924,-8.463188713515342 0.879563753655676,-8.501735854017525 0.918777763604693,-8.539604383240464 0.9586466980332383,-8.576782766063316 0.999158412477666,-8.613259677590518 1.0403005666773104,-8.64902400660146 1.0820606283334495,-8.684064858935066 1.1244258769267639,-8.71837156080827 1.1673834075921306,-8.751933662067342 1.21092013504957,-8.784740939371117 1.255022797590149,-8.816783399305116 1.2996779611156255,-8.848051281425642 1.3448720232306055,-8.8785350612329 1.390591217385964,-8.908225453072262 1.4368216170722694,-8.937113412962754 1.4835491400619334,-8.965190141351949 1.5307595526987938,-8.992447085796393 1.5784384742338238,-9.018875943566766 1.6265713812056475,-9.04446866417697 1.6751436118645275,-9.069217451836382 1.7241403706384755,-9.093114767824536 1.7735467326401266,-9.116153332787484 1.8233476482130049,-9.138326128955157 1.8735279475157944,-9.159626402279052 1.9240723451432205,-9.180047664489573 1.9749654447821308,-9.199583695072425 2.026191743901363,-9.218228543163443 2.077735638473965,-9.235976529361281" stroke="#00f" stroke-linecap="round" stroke-linejoin="round"/><polyline fill="none" points="2.077735638473965,-9.235976529361281 2.129581427730333,-9.252822247457415 2.181713318940818,-9.268760566082925 2.234115432226345,-9.28378663027156 2.286771805395576,-9.297895862938608 2.3396663988071498,-9.311083966275119 2.392783100255512,-9.32334692305706 2.4461057298788482,-9.334680997869 2.4996180450876277,-9.345082738241958 2.553303745512252,-9.35454897570505 2.607146477968307,-9.363076826750646 2.6611298414378997,-9.370663693712705 2.7152373920655695,-9.377307265558056 2.7694526481672432,-9.383005518590355 2.8237590952507174,-9.38775671706653 2.878140191046132,-9.391559413725497 2.932579370544906,-9.39441245022902 2.9870600510456002,-9.396314957514537 3.041565637205168,-9.397266356059903 3.0960795260940572,-9.397266356059903 3.150585112253625,-9.396314957514537 3.2050657927543194,-9.39441245022902 3.2595049722530933,-9.391559413725497 3.313886068048508,-9.38775671706653 3.368192515131982,-9.383005518590355 3.422407771233656,-9.377307265558056 3.4765153218613256,-9.370663693712705 3.530498685330919,-9.363076826750646 3.5843414177869737,-9.35454897570505 3.638027118211598,-9.345082738241958 3.6915394334203775,-9.334680997869 3.7448620630437137,-9.32334692305706 3.797978764492076,-9.311083966275119 3.85087335790365,-9.297895862938608 3.9035297310728807,-9.28378663027156 3.9559318443584077,-9.268760566082925 4.008063735568893,-9.252822247457415 4.059909524825261,-9.235976529361281 4.111453419397863,-9.218228543163443 4.162679718517095,-9.199583695072425 4.213572818156006,-9.180047664489573 4.264117215783433,-9.159626402279052 4.314297515086222,-9.138326128955157" stroke="#00f" stroke-linecap="round" stroke-linejoin="round"/><polyline fill="none" points="4.314297515086222,-9.138326128955157 4.364098430659101,-9.116153332787484 4.413504792660752,-9.093114767824536 4.4625015514347,-9.069217451836382 4.511073782093581,-9.04446866417697 4.559206689065404,-9.018875943566766 4.606885610600434,-8.992447085796393 4.654096023237295,-8.965190141351949 4.7008235462269585,-8.937113412962754 4.747053945913264,-8.908225453072262 4.792773140068623,-8.8785350612329 4.837967202183603,-8.848051281425642 4.8826223657090795,-8.816783399305116 4.926725028249659,-8.784740939371117 4.9702617557070985,-8.751933662067342 5.013219286372466,-8.71837156080827 5.05558453496578,-8.684064858935066 5.097344596621919,-8.64902400660146 5.1384867508215635,-8.613259677590518 5.178998465265991,-8.576782766063316 5.2188673996945365,-8.539604383240464 5.2580814096435535,-8.501735854017525 5.296628550145737,-8.463188713515342 5.334497079368676,-8.423974703566325 5.3716754621915275,-8.38410576913778 5.408152373718729,-8.343594054693352 5.443916702729671,-8.302451900493708 5.478957555063277,-8.260691838837568 5.5132642569364805,-8.218326590244253 5.5468263581955535,-8.175369059578886 5.579633635499329,-8.131832332121446 5.611676095433329,-8.087729669580867 5.642943977553855,-8.04307450605539 5.6734277573611145,-7.99788044394041 5.703118149200476,-7.952161249785052 5.732006109090967,-7.905930850098746 5.7600828374801605,-7.859203327109082 5.787339781924605,-7.8119929144722215 5.813768639694979,-7.764313992937192 5.839361360305182,-7.716181085965368 5.864110147964595,-7.667608855306487 5.88800746395275,-7.618612096532539 5.911046028915698,-7.569205734530888" stroke="#00f" stroke-linecap="round" stroke-linejoin="round"/><polyline fill="none" points="5.911046028915698,-7.569205734530888 5.933218825083372,-7.51940481895801 5.954519098407267,-7.46922451965522 5.974940360617787,-7.418680122027793 5.994476391200639,-7.367787022388883 6.013121239291657,-7.31656072326965 6.030869225489495,-7.265016828697048 6.047714943585629,-7.21317103944068 6.063653262211139,-7.161039148230195 6.078679326399775,-7.108637034944668 6.092788559066822,-7.055980661775437 6.105976662403331,-7.003086068363863 6.118239619185271,-6.9499693669155 6.129573693997211,-6.896646737292164 6.139975434370169,-6.843134422083384 6.149441671833262,-6.78944872165876 6.157969522878858,-6.735605989202704 6.165556389840917,-6.6816226257331115 6.1721999616862675,-6.627515075105442 6.177898214718566,-6.5732998190037675 6.182649413194741,-6.518993371920294 6.186452109853709,-6.464612276124879 6.189305146357231,-6.410173096626105 6.19120765364275,-6.35569241612541 6.192159052188116,-6.301186829965842 6.246672941077006,-6.301186829965842 6.301178527236574,-6.300235431420476 6.3556592077372684,-6.298332924134958 6.410098387236043,-6.295479887631436 6.464479483031457,-6.291677190972468 6.518785930114932,-6.286925992496293 6.573001186216606,-6.281227739463994 6.627108736844276,-6.274584167618644 6.681092100313869,-6.266997300656585 6.734934832769924,-6.258469449610989 6.788620533194549,-6.249003212147896 6.842132848403328,-6.238601471774938 6.895455478026665,-6.227267396962998 6.948572179475027,-6.215004440181058 7.001466772886602,-6.201816336844549 7.054123146055833,-6.187707104177502 7.1065252593413595,-6.172681039988866 7.158657150551845,-6.156742721363356" stroke="#00f" stroke-linecap="round" stroke-linejoin="round"/><polyline fill="none" points="7.158657150551845,-6.156742721363356 7.2105029398082126,-6.1398970032672215 7.262046834380815,-6.1221490170693835 7.313273133500047,-6.103504168978366 7.364166233138958,-6.083968138395514 7.414710630766384,-6.0635468761849936 7.464890930069174,-6.042246602861099 7.514691845642052,-6.020073806693425 7.5640982076437036,-5.997035241730477 7.613094966417652,-5.973137925742322 7.661667197076532,-5.948389138082909 7.709800104048356,-5.922796417472706 7.757479025583386,-5.896367559702333 7.8046894382202465,-5.869110615257888 7.851416961209911,-5.841033886868694 7.897647360896217,-5.812145926978204 7.9433665550515755,-5.782455535138842 7.988560617166556,-5.751971755331582 8.033215780692032,-5.720703873211057 8.077318443232612,-5.688661413277057 8.120855170690051,-5.655854135973281 8.163812701355418,-5.622292034714208 8.206177949948733,-5.587985332841005 8.247938011604873,-5.552944480507398 8.289080165804517,-5.517180151496457 8.329591880248945,-5.480703239969255 8.36946081467749,-5.443524857146404 8.408674824626507,-5.405656327923465 8.44722196512869,-5.367109187421281 8.48509049435163,-5.327895177472264 8.522268877174481,-5.288026243043719 8.558745788701684,-5.247514528599291 8.594510117712625,-5.206372374399646 8.629550970046232,-5.1646123127435075 8.663857671919436,-5.122247064150193 8.697419773178508,-5.079289533484826 8.730227050482283,-5.035752806027387 8.762269510416282,-4.991650143486807 8.793537392536807,-4.946994979961331 8.824021172344066,-4.901800917846351 8.853711564183428,-4.856081723690992 8.88259952407392,-4.809851324004686 8.910676252463114,-4.763123801015022" stroke="#00f" stroke-linecap="round" stroke-linejoin="round"/><polyline fill="none" points="8.910676252463114,-4.763123801015022 8.93793319690756,-4.715913388378161 8.964362054677933,-4.668234466843131 8.989954775288137,-4.6201015598713076 9.01470356294755,-4.571529329212427 9.038600878935705,-4.522532570438479 9.061639443898654,-4.4731262084368275 9.083812240066328,-4.423325292863949 9.105112513390223,-4.3731449935611595 9.125533775600744,-4.322600595933733 9.145069806183596,-4.271707496294822 9.163714654274614,-4.22048119717559 9.181462640472452,-4.168937302602988 9.198308358568587,-4.117091513346619 9.214246677194097,-4.064959622136133 9.229272741382733,-4.012557508850605 9.24338197404978,-3.959901135681374 9.256570077386291,-3.9070065422698 9.268833034168232,-3.8538898408214375 9.280167108980173,-3.800567211198101 9.29056884935313,-3.7470548959893213 9.300035086816223,-3.6933691955646966 9.308562937861819,-3.6395264631086413 9.316149804823878,-3.585543099639048 9.322793376669228,-3.5314355490113782 9.328491629701528,-3.4772202929097045 9.333242828177703,-3.4229138458262303 9.33704552483667,-3.3685327500308153 9.339898561340192,-3.314093570532041 9.34180106862571,-3.2596128900313466 9.342752467171076,-3.205107303871779 9.342752467171076,-3.150593414982889 9.34180106862571,-3.0960878288233213 9.339898561340192,-3.041607148322627 9.33704552483667,-2.9871679688238526 9.333242828177703,-2.9327868730284377 9.328491629701528,-2.8784804259449635 9.322793376669228,-2.8242651698432897 9.316149804823878,-2.7701576192156194 9.308562937861819,-2.7161742557460262 9.300035086816223,-2.662331523289971 9.29056884935313,-2.608645822865346 9.280167108980173,-2.5551335076565667" stroke="#00f" stroke-linecap="round" stroke-linejoin="round"/><polyline fill="none" points="9.280167108980173,-2.5551335076565667 9.268833034168232,-2.50181087803323 9.256570077386291,-2.4486941765848673 9.24338197404978,-2.395799583173293 9.229272741382733,-2.3431432100040617 9.214246677194097,-2.2907410967185347 9.198308358568587,-2.238609205508049 9.181462640472454,-2.1867634162516807 9.163714654274616,-2.1352195216790784 9.145069806183598,-2.0839932225598456 9.125533775600745,-2.033100122920935 9.105112513390225,-1.9825557252935087 9.08381224006633,-1.9323754259907187 9.061639443898656,-1.88257451041784 9.038600878935707,-1.8331681484161886 9.014703562947552,-1.7841713896422402 8.989954775288139,-1.7355991589833597 8.964362054677935,-1.6874662520115356 8.937933196907561,-1.6397873304765054 8.910676252463118,-1.5925769178396447 8.882599524073923,-1.5458493948499803 8.853711564183431,-1.4996189951636745 8.82402117234407,-1.4538998010083155 8.79353739253681,-1.408705738893335 8.762269510416285,-1.364050575367858 8.730227050482286,-1.3199479128272786 8.697419773178511,-1.2764111853698388 8.66385767191944,-1.2334536547044717 8.629550970046235,-1.1910884061111568 8.594510117712629,-1.1493283444550175 8.558745788701687,-1.1081861902553727 8.522268877174485,-1.0676744758109447 8.485090494351633,-1.027805541382399 8.447221965128694,-0.9885915314333816 8.40867482462651,-0.9500443909311976 8.369460814677494,-0.9121758617082586 8.329591880248948,-0.8749974788854065 8.28908016580452,-0.8385205673582042 8.247938011604877,-0.8027562383472628 8.206177949948737,-0.7677153860136557 8.163812701355422,-0.7334086841404522 8.120855170690055,-0.6998465828813794 8.077318443232615,-0.6670393055776039" stroke="#00f" stroke-linecap="round" stroke-linejoin="round"/><polyline fill="none" points="8.077318443232615,-0.6670393055776039 8.033215780692036,-0.634996845643604 7.988560617166558,-0.6037289635230777 7.943366555051578,-0.5732451837158177 7.89764736089622,-0.5435547918764563 7.851416961209914,-0.5146668319859651 7.804689438220249,-0.4865901035967707 7.757479025583389,-0.45933315915232575 7.709800104048359,-0.4329043013819521 7.661667197076535,-0.40731158077174856 7.613094966417655,-0.3825627931123353 7.564098207643706,-0.35866547712418034 7.514691845642055,-0.3356269121612321 7.464890930069177,-0.3134541159935578 7.414710630766387,-0.292153842669663 7.364166233138961,-0.2717325804591424 7.31327313350005,-0.2521965498762906 7.2620468343808176,-0.23355170178527287 7.210502939808215,-0.21580371558743447 7.158657150551846,-0.19895799749129986 7.10652525934136,-0.18301967886578924 7.054123146055833,-0.1679936146771539 7.001466772886602,-0.15388438201010646 6.948572179475027,-0.14069627867359652 6.895455478026665,-0.1284333218916564 6.8421328484033275,-0.11709924707971579 6.788620533194548,-0.10669750670675808 6.734934832769923,-0.09723126924366478 6.681092100313868,-0.08870341819806865 6.627108736844274,-0.08111655123600933 6.5730011862166045,-0.0744729793906591 6.51878593011493,-0.06877472635835977 6.464479483031456,-0.0640235278821852 6.410098387236041,-0.060220831223217114 6.355659207737267,-0.0573677947196954 6.301178527236572,-0.05546528743417701 6.246672941077004,-0.05451388888881111 -0.0033270589230944836,-0.054513888888801834" stroke="#00f" stroke-linecap="round" stroke-linejoin="round"/><line fill="none" stroke="none" stroke-linecap="round" stroke-width="2.0" x1="0.0" x2="0.0" y1="0.0" y2="0.0"/><polygon fill="none" fill-rule="evenodd" points="0.0,0.0 0.0,0.0 0.0,0.0" stroke-linejoin="round"/></svg>